<?xml version="1.0" encoding="UTF-8" standalone="no"?>
<svg width="648px" height="251px" viewBox="0 0 648 251" version="1.1" xmlns="http://www.w3.org/2000/svg" xmlns:xlink="http://www.w3.org/1999/xlink" xmlns:sketch="http://www.bohemiancoding.com/sketch/ns">
    <!-- Generator: Sketch 3.2 (9961) - http://www.bohemiancoding.com/sketch -->
    <title>Logo DarkBlue + BitShares Blue - Gradiant</title>
    <desc>Created with Sketch.</desc>
    <defs>
        <linearGradient x1="1083.70039%" y1="213.184466%" x2="-11223.831%" y2="-1775.39089%" id="linearGradient-1">
            <stop stop-color="#004877" offset="0%"></stop>
            <stop stop-color="#009FE3" offset="100%"></stop>
        </linearGradient>
        <linearGradient x1="740.274354%" y1="195.327967%" x2="-8570.64217%" y2="-1760.37838%" id="linearGradient-2">
            <stop stop-color="#004877" offset="0%"></stop>
            <stop stop-color="#009FE3" offset="100%"></stop>
        </linearGradient>
        <linearGradient x1="4419.39556%" y1="527.405461%" x2="-3817.18444%" y2="-372.368181%" id="linearGradient-3">
            <stop stop-color="#004877" offset="0%"></stop>
            <stop stop-color="#009FE3" offset="100%"></stop>
        </linearGradient>
        <linearGradient x1="809.23177%" y1="151.517682%" x2="-530.887419%" y2="-18.1170619%" id="linearGradient-4">
            <stop stop-color="#004877" offset="0%"></stop>
            <stop stop-color="#009FE3" offset="100%"></stop>
        </linearGradient>
        <linearGradient x1="7295.4274%" y1="189.794103%" x2="-6793.46386%" y2="-81.8939568%" id="linearGradient-5">
            <stop stop-color="#004877" offset="0%"></stop>
            <stop stop-color="#009FE3" offset="100%"></stop>
        </linearGradient>
        <linearGradient x1="1235.88474%" y1="149.469103%" x2="-1203.19324%" y2="-55.7696657%" id="linearGradient-6">
            <stop stop-color="#004877" offset="0%"></stop>
            <stop stop-color="#009FE3" offset="100%"></stop>
        </linearGradient>
        <linearGradient x1="819.197031%" y1="166.090285%" x2="-956.516733%" y2="-104.047235%" id="linearGradient-7">
            <stop stop-color="#004877" offset="0%"></stop>
            <stop stop-color="#009FE3" offset="100%"></stop>
        </linearGradient>
        <linearGradient x1="674.433557%" y1="117.503743%" x2="-1014.45509%" y2="-53.3556792%" id="linearGradient-8">
            <stop stop-color="#004877" offset="0%"></stop>
            <stop stop-color="#009FE3" offset="100%"></stop>
        </linearGradient>
        <linearGradient x1="516.065732%" y1="131.302576%" x2="-1044.8022%" y2="-138.834944%" id="linearGradient-9">
            <stop stop-color="#004877" offset="0%"></stop>
            <stop stop-color="#009FE3" offset="100%"></stop>
        </linearGradient>
        <linearGradient x1="620.365442%" y1="116.317705%" x2="-1785.82609%" y2="-156.309562%" id="linearGradient-10">
            <stop stop-color="#004877" offset="0%"></stop>
            <stop stop-color="#009FE3" offset="100%"></stop>
        </linearGradient>
        <linearGradient x1="307.234818%" y1="99.0439143%" x2="-1092.44544%" y2="-169.865708%" id="linearGradient-11">
            <stop stop-color="#004877" offset="0%"></stop>
            <stop stop-color="#009FE3" offset="100%"></stop>
        </linearGradient>
        <linearGradient x1="259.174125%" y1="80.8585501%" x2="-1514.53383%" y2="-188.970754%" id="linearGradient-12">
            <stop stop-color="#004877" offset="0%"></stop>
            <stop stop-color="#009FE3" offset="100%"></stop>
        </linearGradient>
        <radialGradient cx="93.3516551%" cy="7.44297596%" fx="93.3516551%" fy="7.44297596%" r="160.01179%" id="radialGradient-13">
            <stop stop-color="#00587C" offset="0%"></stop>
            <stop stop-color="#006A93" offset="21.9746492%"></stop>
            <stop stop-color="#006A93" offset="33.613997%"></stop>
            <stop stop-color="#00A9E0" offset="100%"></stop>
        </radialGradient>
    </defs>
    <g id="Logo-&amp;-Variants" stroke="none" stroke-width="1" fill="none" fill-rule="evenodd" sketch:type="MSPage">
        <g id="Logo-DarkBlue-+-BitShares-Blue---Gradiant" sketch:type="MSArtboardGroup" transform="translate(0.000000, 0.294683)">
            <g id="Group" sketch:type="MSLayerGroup" transform="translate(45.000000, 33.000000)">
                <path d="M549.413793,93.8739496 L547,93.8739496 L547,93 L553,93 L553,93.8739496 L550.448276,93.8739496 L550.448276,101 L549.413793,101 L549.413793,93.8739496 L549.413793,93.8739496 Z" id="Shape" fill="url(#linearGradient-1)" sketch:type="MSShapeGroup"></path>
                <path d="M561.304348,97.5619835 C561.165217,96.4380165 561.165217,95.1157025 561.165217,94.2561983 L561.165217,94.2561983 C560.956522,95.1157025 560.469565,96.1735537 560.121739,97.231405 L558.730435,101 L557.895652,101 L556.643478,97.231405 C556.295652,96.107438 555.947826,95.1157025 555.73913,94.1239669 L555.73913,94.1239669 C555.73913,95.1157025 555.6,96.3719008 555.530435,97.5619835 L555.321739,100.867769 L554,100.867769 L554.556522,93 L555.808696,93 L557.2,96.768595 C557.547826,97.7603306 557.756522,98.553719 558.034783,99.4132231 L558.034783,99.4132231 C558.243478,98.6198347 558.521739,97.7603306 558.869565,96.768595 L560.26087,93 L561.513043,93 L562,100.867769 L560.956522,100.867769 L561.304348,97.5619835 L561.304348,97.5619835 Z" id="Shape" fill="url(#linearGradient-2)" sketch:type="MSShapeGroup"></path>
                <path id="Shape" sketch:type="MSShapeGroup"></path>
                <path d="M211,78.539924 L211,68 L220,75.3231939 L220,86 L211,78.539924 Z" id="Shape" fill="url(#linearGradient-3)" sketch:type="MSShapeGroup"></path>
                <path d="M201.498123,99.4623656 C199.132666,96.8344086 196.158949,94.7455197 192.982478,93.2630824 C189.670839,91.7806452 186.088861,90.972043 182.101377,90.972043 C176.289111,90.972043 171.085106,92.5218638 166.7597,95.6888889 C164.123905,97.5082437 161.893617,99.8666667 160.204005,102.562007 L160.204005,56 L155,56 L155,149.393548 L160.136421,149.393548 L160.136421,138.410036 C161.961202,141.105376 164.123905,143.396416 166.692115,145.283154 C171.085106,148.450179 176.221527,150 182.033792,150 C185.886108,150 189.603254,149.191398 192.914894,147.708961 C196.226533,146.226523 199.065081,144.205018 201.430538,141.577061 C203.795995,138.949104 205.755945,135.782079 206.972466,132.278136 C208.188986,128.774194 209,124.798566 209,120.486022 C209,116.308244 208.324155,112.332616 206.972466,108.693907 C205.823529,105.324731 203.931164,102.157706 201.498123,99.4623656 L201.498123,99.4623656 Z M203.998748,120.688172 C203.998748,124.326882 203.458073,127.56129 202.444305,130.660932 C201.430538,133.625806 199.808511,136.18638 198.051314,138.207885 C196.091364,140.364158 193.725907,141.913978 191.157697,143.059498 C188.454318,144.205018 185.480601,144.878853 182.168961,144.878853 C178.857322,144.878853 175.951189,144.339785 173.180225,143.059498 C170.476846,141.913978 168.178974,140.229391 166.286608,138.207885 C164.326658,136.051613 162.907384,133.558423 161.758448,130.660932 C160.744681,127.696057 160.204005,124.326882 160.204005,120.688172 C160.204005,117.049462 160.744681,113.815054 161.758448,110.715412 C162.772215,107.750538 164.394243,105.189964 166.286608,103.033692 C168.246558,100.877419 170.612015,99.1928315 173.180225,98.0473118 C175.883605,96.8344086 178.857322,96.227957 182.033792,96.227957 C185.210263,96.227957 188.251564,96.7670251 190.887359,98.0473118 C193.590738,99.2602151 195.888611,100.877419 197.780976,103.033692 C199.740926,105.189964 201.1602,107.750538 202.309136,110.715412 C203.458073,113.815054 203.998748,117.049462 203.998748,120.688172 L203.998748,120.688172 Z" id="Shape" fill="url(#linearGradient-4)" sketch:type="MSShapeGroup"></path>
                <rect id="Rectangle-path" fill="url(#linearGradient-5)" sketch:type="MSShapeGroup" x="216" y="92" width="5" height="59"></rect>
                <path d="M252.694761,143.964441 C251.191344,145.317433 249.482916,145.993929 247.432802,145.993929 C245.382688,145.993929 243.67426,145.317433 242.375854,143.829141 C241.145786,142.34085 240.32574,140.446661 240.32574,138.011275 L240.32574,97.6244579 L255.56492,97.6244579 L255.56492,92.415438 L240.32574,92.415438 L240.32574,73 L235.132118,73 L235.132118,92.415438 L227,92.415438 L227,97.5568083 L235.132118,97.5568083 L235.132118,137.943625 C235.132118,141.664354 236.29385,144.843886 238.548975,147.279271 C240.872437,149.782307 243.810934,151 247.364465,151 C249.072893,151 250.712984,150.797051 252.079727,150.120555 C253.446469,149.579358 254.744875,148.902862 255.838269,147.820468 L257,146.941023 L253.993166,142.543799 L252.694761,143.964441 L252.694761,143.964441 Z" id="Shape" fill="url(#linearGradient-6)" sketch:type="MSShapeGroup"></path>
                <path d="M295.968491,123.722603 C294.404643,122.510274 292.568823,121.567352 290.597015,120.893836 C288.761194,120.22032 286.721393,119.681507 284.885572,119.075342 L281.349917,118.065068 C279.99005,117.728311 278.494196,117.256849 276.998342,116.85274 C275.774461,116.381279 274.3466,115.707763 273.258706,115.034247 C272.238806,114.226027 271.286899,113.215753 270.606965,112.003425 C269.927032,110.791096 269.587065,109.039954 269.587065,107.019406 C269.587065,105.335616 269.927032,103.853881 270.742952,102.641553 C271.558872,101.429224 272.578773,100.351598 273.598673,99.6107306 C274.822554,98.8025114 276.318408,98.1289954 277.950249,97.7922374 C279.514096,97.3207763 281.281924,97.1187215 282.845771,97.1187215 C285.701493,97.1187215 288.353234,97.4554795 290.393035,98.2636986 C292.568823,99.0719178 294.74461,100.082192 296.784411,101.631279 L298.008292,102.506849 L301,98.4657534 L299.844113,97.5901826 C297.328358,95.5696347 294.676617,94.2226027 291.888889,93.2123288 C289.169154,92.336758 286.041459,92 282.777778,92 C280.60199,92 278.358209,92.2020548 276.250415,92.8082192 C274.074627,93.347032 272.034826,94.2899543 270.334992,95.6369863 C268.499171,96.8493151 267.003317,98.4657534 265.915423,100.351598 C264.827529,102.237443 264.215589,104.6621 264.215589,107.221461 C264.215589,110.252283 264.759536,112.744292 265.915423,114.697489 C267.07131,116.515982 268.295191,118.065068 269.927032,119.344749 C271.490879,120.489726 273.258706,121.365297 275.094527,121.971461 C276.794362,122.510274 278.494196,122.981735 279.854063,123.318493 L283.389718,124.328767 C285.225539,124.800228 286.925373,125.339041 288.557214,125.877854 C290.053068,126.416667 291.412935,127.090183 292.568823,127.898402 C293.588723,128.706621 294.54063,129.716895 295.084577,130.929224 C295.764511,132.141553 295.968491,133.892694 295.968491,135.913242 C295.968491,137.731735 295.628524,139.280822 294.74461,140.425799 C293.92869,141.638128 292.908789,142.715753 291.548922,143.456621 C290.325041,144.26484 288.693201,144.803653 286.993367,145.275114 C285.157546,145.611872 283.457711,145.813927 281.621891,145.813927 C278.290216,145.813927 275.230514,145.140411 272.374793,143.995434 C269.519071,142.850457 266.86733,141.031963 264.623549,138.809361 L263.399668,137.664384 L260,141.638128 L261.0199,142.648402 C263.875622,145.342466 266.935323,147.363014 270.470978,148.844749 C274.006633,150.191781 277.746269,151 281.621891,151 C283.797678,151 286.041459,150.797945 288.217247,150.191781 C290.529022,149.72032 292.636816,148.844749 294.472637,147.699772 C296.308458,146.487443 297.872305,145.005708 299.164179,143.052511 C300.456053,141.099315 301,138.674658 301,135.84589 C301,132.88242 300.524046,130.390411 299.504146,128.504566 C298.824212,126.55137 297.532338,124.934932 295.968491,123.722603 L295.968491,123.722603 Z" id="Shape" fill="url(#linearGradient-7)" sketch:type="MSShapeGroup"></path>
                <path d="M346.031546,98.2649819 C344.064669,96.2967509 341.826498,94.8714801 339.113565,93.7176895 C336.468454,92.5638989 333.619874,92.0209386 330.567823,92.0209386 C326.362776,92.0209386 322.496845,93.1747292 319.037855,95.3465704 C317.206625,96.568231 315.511041,97.9935018 314.154574,99.6902527 L314.154574,57 L309,57 L309,151 L314.154574,151 L314.154574,114.01083 C314.154574,111.703249 314.629338,109.463538 315.375394,107.495307 C316.189274,105.459206 317.342271,103.626715 318.766562,102.133574 C320.258675,100.640433 321.954259,99.4187726 323.988959,98.6043321 C325.955836,97.7898917 328.194006,97.3826715 330.5,97.3826715 C332.805994,97.3826715 334.908517,97.8577617 336.875394,98.6043321 C338.842271,99.4187726 340.605678,100.640433 342.029968,102.133574 C343.522082,103.626715 344.675079,105.459206 345.421136,107.495307 C346.235016,109.463538 346.641956,111.703249 346.641956,114.01083 L346.641956,151 L352,151 L352,114.01083 C352,110.956679 351.457413,108.106137 350.304416,105.459206 C349.422713,102.472924 347.862776,100.301083 346.031546,98.2649819 L346.031546,98.2649819 Z" id="Shape" fill="url(#linearGradient-8)" sketch:type="MSShapeGroup"></path>
                <path d="M400.708455,98.8127854 C399.03207,96.4554795 396.886297,94.4349315 393.93586,93.0205479 C391.119534,91.8082192 387.498542,91 383.274052,91 C381.329446,91 378.781341,91.2020548 375.830904,91.673516 C372.813411,92.1449772 369.393586,93.1552511 365.83965,94.6369863 L364.364431,95.3105023 L366.510204,100.159817 L367.851312,99.4863014 C371.002915,98.1392694 373.953353,97.196347 376.635569,96.7922374 C379.451895,96.4554795 381.731778,96.2534247 383.408163,96.2534247 C386.760933,96.2534247 389.510204,96.7248858 391.521866,97.6004566 C393.533528,98.4760274 395.142857,99.890411 396.349854,101.439498 C397.556851,103.123288 398.361516,105.278539 398.830904,107.635845 C399.166181,109.656393 399.501458,111.946347 399.635569,114.303653 C393.466472,113.091324 388.034985,112.350457 383.206997,112.350457 C375.696793,112.350457 369.728863,114.034247 365.638484,117.199772 C362.822157,119.489726 361.011662,122.049087 360.206997,124.743151 C359.402332,127.437215 359,129.861872 359,131.949772 C359,133.498858 359.201166,135.317352 359.804665,137.405251 C360.341108,139.425799 361.346939,141.446347 362.755102,143.26484 C364.09621,145.083333 366.107872,146.63242 368.521866,147.979452 C370.868805,149.191781 373.953353,150 377.641399,150 C379.451895,150 381.463557,149.797945 383.609329,149.326484 C385.755102,148.855023 387.900875,148.181507 390.046647,147.305936 C392.19242,146.430365 394.338192,145.150685 396.215743,143.66895 C397.422741,142.658676 398.830904,141.378995 399.90379,140.166667 L399.90379,149.461187 L405,149.461187 L405,117.805936 C405,113.966895 404.798834,110.464612 404.195335,107.299087 C403.390671,104.133562 402.250729,101.237443 400.708455,98.8127854 L400.708455,98.8127854 Z M399.568513,119.624429 L399.568513,124.608447 C399.568513,126.426941 399.367347,128.312785 399.03207,130.131279 C398.830904,131.949772 398.026239,133.498858 396.886297,135.115297 C395.6793,136.93379 394.204082,138.415525 392.594752,139.627854 C390.918367,140.840183 389.241983,141.917808 387.498542,142.658676 C385.688047,143.466895 384.011662,143.871005 382.201166,144.342466 C380.390671,144.679224 378.848397,144.881279 377.239067,144.881279 C374.556851,144.881279 372.411079,144.409817 370.600583,143.534247 C368.790087,142.658676 367.44898,141.378995 366.577259,140.166667 C365.571429,138.954338 364.900875,137.472603 364.431487,135.990868 C364.09621,134.509132 363.760933,133.1621 363.760933,132.151826 C363.760933,130.468037 363.962099,128.649543 364.632653,126.494292 C365.169096,124.541096 366.443149,122.857306 368.3207,121.308219 C371.606414,118.81621 376.300292,117.603881 382.603499,117.603881 C387.632653,117.603881 393.265306,118.277397 399.568513,119.624429 L399.568513,119.624429 Z" id="Shape" fill="url(#linearGradient-9)" sketch:type="MSShapeGroup"></path>
                <path d="M442.325843,95.1267281 C440.977528,94.2430876 439.359551,93.4274194 437.606742,92.8156682 C435.786517,92.2718894 434.101124,92 432.146067,92 C428.505618,92 425.269663,93.0195853 422.168539,94.9907834 C420.820225,95.874424 419.47191,97.0299539 418.325843,98.3894009 L418.325843,92.6797235 L413,92.6797235 L413,151 L418.325843,151 L418.325843,112.867512 C418.325843,110.556452 418.662921,108.517281 419.337079,106.682028 C420.146067,104.846774 421.022472,103.147465 422.303371,101.788018 C423.516854,100.428571 425,99.2730415 426.685393,98.4573733 C429.516854,97.233871 433.022472,96.9619816 435.853933,97.9815668 C437.067416,98.4573733 438.348315,99.1370968 439.494382,99.8168203 L441.179775,100.97235 L443,95.8064516 L442.325843,95.1267281 L442.325843,95.1267281 Z" id="Shape" fill="url(#linearGradient-10)" sketch:type="MSShapeGroup"></path>
                <path d="M448.098039,118.954545 L495,118.954545 L494.864052,117.25 C494.660131,113.363636 493.708497,109.681818 492.552941,106.477273 C491.329412,103.272727 489.562092,100.545455 487.386928,98.2272727 C485.211765,95.9090909 482.628758,94.1363636 479.773856,92.8409091 C476.918954,91.5454545 473.520261,91 469.985621,91 C466.111111,91 462.372549,91.8181818 459.04183,93.3181818 C455.711111,94.8181818 452.856209,96.8636364 450.477124,99.5909091 C448.166013,102.25 446.262745,105.454545 444.971242,109.204545 C443.747712,112.886364 443,116.840909 443,121.204545 C443,125.568182 443.679739,129.590909 444.971242,133.136364 C446.194771,136.818182 448.166013,140.022727 450.477124,142.613636 C452.788235,145.272727 455.711111,147.386364 459.04183,148.818182 C462.372549,150.25 465.975163,151 469.985621,151 C474.403922,151 478.414379,150.318182 482.084967,148.954545 C485.823529,147.727273 489.018301,145.613636 491.669281,143.090909 L492.824837,142.068182 L489.494118,138.181818 L488.270588,139.204545 C485.959477,141.181818 483.376471,142.75 480.181699,143.977273 C477.122876,145.136364 473.656209,145.681818 469.917647,145.681818 C466.722876,145.681818 463.732026,145.136364 461.14902,143.840909 C458.566013,142.545455 456.254902,140.977273 454.28366,138.931818 C452.448366,136.75 450.884967,134.227273 449.865359,131.295455 C448.845752,128.295455 448.301961,124.886364 448.301961,121.204545 L448.301961,119.363636 C448.098039,119.159091 448.098039,119.090909 448.098039,118.954545 L448.098039,118.954545 Z M448.845752,113.772727 C449.321569,111.454545 450.069281,109.409091 451.156863,107.568182 C452.380392,105.25 453.875817,103.136364 455.711111,101.5 C457.546405,99.7954545 459.721569,98.5 462.100654,97.6136364 C464.411765,96.7272727 467.130719,96.25 469.985621,96.25 C473.180392,96.25 475.899346,96.7954545 478.210458,97.8181818 C480.521569,98.8409091 482.424837,100.204545 484.056209,102.045455 C485.619608,103.886364 486.911111,105.931818 487.794771,108.113636 C488.610458,109.954545 489.018301,111.863636 489.494118,113.840909 L448.913725,113.840909 L448.913725,113.772727 L448.845752,113.772727 Z" id="Shape" fill="url(#linearGradient-11)" sketch:type="MSShapeGroup"></path>
                <path d="M538.663273,128.395667 C537.644524,126.444698 536.354109,124.897377 534.792028,123.686431 C533.229948,122.475485 531.3962,121.533637 529.42662,120.860889 C527.592873,120.188141 525.555376,119.649943 523.721629,119.04447 L520.189968,118.035348 C518.831636,117.698974 517.337472,117.22805 515.843308,116.824401 C514.620809,116.353478 513.194562,115.68073 512.107897,115.007982 C511.089148,114.200684 510.138316,113.191562 509.459151,111.980616 C508.779985,110.769669 508.440402,109.020525 508.440402,107.002281 C508.440402,105.32041 508.779985,103.840365 509.594984,102.629418 C510.409983,101.418472 511.428731,100.342075 512.583313,99.6020525 C513.805811,98.7947548 515.299975,98.1220068 516.929973,97.7856328 C518.492053,97.3147092 520.257884,97.1128848 521.819965,97.1128848 C524.672461,97.1128848 527.321207,97.4492588 529.358703,98.2565564 C531.532033,99.063854 533.705363,100.072976 535.74286,101.620296 L536.965358,102.494869 L539.953687,98.4583808 L538.799106,97.5838084 C536.286193,95.5655644 533.637447,94.2200684 530.852868,93.2109464 C528.136205,92.336374 525.012043,92 521.752048,92 C519.578718,92 517.337472,92.2018244 515.232058,92.8072976 C513.194562,93.345496 511.021232,94.2873432 509.323318,95.6328392 C507.48957,96.8437856 505.995406,98.4583808 504.908741,100.342075 C503.754159,102.293044 503.210827,104.647662 503.210827,107.204105 C503.210827,110.231471 503.754159,112.720639 504.908741,114.671608 C506.063323,116.488027 507.285821,118.035348 508.915818,119.313569 C510.477899,120.457241 512.24373,121.331813 514.077477,121.937286 C515.775391,122.475485 517.473305,122.946408 518.831636,123.282782 L522.363298,124.291904 C524.197045,124.762828 525.894959,125.301026 527.524956,125.839225 C529.019121,126.377423 530.377452,127.050171 531.532033,127.857469 C532.550782,128.664766 533.501614,129.673888 534.044946,130.884835 C534.724112,132.095781 534.927862,133.844926 534.927862,135.86317 C534.927862,137.67959 534.588279,139.22691 533.705363,140.370582 C532.890365,141.581528 531.871616,142.657925 530.513285,143.397948 C529.290787,144.205245 527.660789,144.743444 525.962875,145.214367 C521.072883,146.358039 515.843308,145.887115 511.360814,144.003421 C508.508319,142.792474 505.859573,141.04333 503.618326,138.823261 L502.395828,137.67959 L499,141.648803 L500.018748,142.657925 C502.871244,145.348917 505.927489,147.367161 509.459151,148.847206 C512.990812,150.192702 516.726223,151 520.597467,151 C522.770797,151 525.012043,150.798176 527.185373,150.192702 C529.494537,149.721779 531.59995,148.847206 533.433697,147.703535 C535.267444,146.492588 536.829525,145.012543 538.11994,143.061574 C539.342438,141.110604 539.953687,138.688712 539.953687,135.86317 C540.157437,132.835804 539.682021,130.346636 538.663273,128.395667 L538.663273,128.395667 Z" id="Shape" fill="url(#linearGradient-12)" sketch:type="MSShapeGroup"></path>
                <path d="M39,112.411679 L3.55271368e-15,74 L3.55271368e-15,120 L35.6707317,120 C36.28223,117.246715 37.4372822,114.627737 39,112.411679 Z M35.9318182,128 L3.55271368e-15,128 C0.818181818,140.587629 5.86363636,151.950515 13.7045455,161 L39,135.756701 C37.5681818,133.375258 36.4090909,130.789691 35.9318182,128 Z M92,82.7045455 C83.0865979,74.9318182 71.6556701,69.8863636 59,69 L59,104.795455 C61.857732,105.340909 64.3752577,106.363636 66.5525773,108 L92,82.7045455 Z M72,134.976939 L96.9542254,160 C104.380282,151.21174 109.06338,140.209644 110,128 L74.8767606,128 C74.2077465,130.616352 73.3380282,132.897275 72,134.976939 Z M75.2045455,120 L111,120 C110.181818,107.412371 105.136364,96.0494845 97.2954545,87 L72,112.243299 C73.5,114.624742 74.5909091,117.278351 75.2045455,120 Z M19,166.295455 C27.9134021,174.068182 39.3443299,179.113636 52,180 L52,144.204545 C49.142268,143.659091 46.6247423,142.636364 44.4474227,141 L19,166.295455 Z M60,144.204545 L60,180 C72.6556701,179.181818 84.0865979,174.068182 93,166.295455 L67.8247423,141 C65.3752577,142.636364 62.7896907,143.659091 60,144.204545 Z M0.136125654,62.2643896 C9.73298429,71.8070841 39.8848168,101.924099 44.921466,107 C47.0994764,105.781784 49.3455497,104.698925 52,104.157495 L52,45.886148 L3.55271368e-15,0 C-1.28344107e-15,0.0676786844 0.136125654,60.8431373 0.136125654,62.2643896 Z" id="Shape" fill="url(#radialGradient-13)" sketch:type="MSShapeGroup"></path>
            </g>
        </g>
    </g>
</svg>